<mxfile host="app.diagrams.net" modified="2024-01-17T09:45:04.447Z" agent="Mozilla/5.0 (Windows NT 10.0; Win64; x64) AppleWebKit/537.36 (KHTML, like Gecko) Chrome/120.0.0.0 Safari/537.36" version="22.1.19" etag="j6445PEARELvyTt8W_a1" type="github">
  <diagram name="Halaman-1" id="WvSSUn-mtCLBI82c2UwD">
    <mxGraphModel>
      <root>
        <mxCell id="0" />
        <mxCell id="1" parent="0" />
      </root>
    </mxGraphModel>
  </diagram>
</mxfile>
